<svg width="92" height="11" viewBox="0 0 92 11" fill="none" xmlns="http://www.w3.org/2000/svg">
<path d="M0.344995 10.77C0.244995 10.77 0.159995 10.74 0.0899952 10.68C0.0299952 10.61 -4.85778e-06 10.525 -4.85778e-06 10.425V9.34502C-4.85778e-06 9.24502 0.0299952 9.16502 0.0899952 9.10502C0.159995 9.03502 0.244995 9.00002 0.344995 9.00002H1.425C1.525 9.00002 1.61 9.03502 1.68 9.10502C1.75 9.16502 1.785 9.24502 1.785 9.34502V10.425C1.785 10.525 1.75 10.61 1.68 10.68C1.61 10.74 1.525 10.77 1.425 10.77H0.344995ZM5.11371 10.77C4.98371 10.77 4.88371 10.74 4.81371 10.68C4.74371 10.61 4.68371 10.515 4.63371 10.395L2.50371 3.43502C2.48371 3.38502 2.47371 3.33502 2.47371 3.28502C2.47371 3.19502 2.50371 3.12002 2.56371 3.06002C2.63371 3.00002 2.70871 2.97002 2.78871 2.97002H3.44871C3.55871 2.97002 3.64371 3.00002 3.70371 3.06002C3.76371 3.12002 3.80371 3.17502 3.82371 3.22502L5.48871 8.88002L7.27371 3.28502C7.29371 3.21502 7.33371 3.14502 7.39371 3.07502C7.46371 3.00502 7.56371 2.97002 7.69371 2.97002H8.20371C8.33371 2.97002 8.43371 3.00502 8.50371 3.07502C8.57371 3.14502 8.61371 3.21502 8.62371 3.28502L10.4087 8.88002L12.0737 3.22502C12.0837 3.17502 12.1187 3.12002 12.1787 3.06002C12.2387 3.00002 12.3237 2.97002 12.4337 2.97002H13.1087C13.1887 2.97002 13.2587 3.00002 13.3187 3.06002C13.3787 3.12002 13.4087 3.19502 13.4087 3.28502C13.4087 3.33502 13.3987 3.38502 13.3787 3.43502L11.2637 10.395C11.2237 10.515 11.1687 10.61 11.0987 10.68C11.0287 10.74 10.9187 10.77 10.7687 10.77H10.1837C10.0537 10.77 9.94371 10.74 9.85371 10.68C9.77371 10.61 9.71871 10.515 9.68871 10.395L7.94871 5.02502L6.20871 10.395C6.16871 10.515 6.10871 10.61 6.02871 10.68C5.94871 10.74 5.83871 10.77 5.69871 10.77H5.11371ZM17.82 10.92C17.06 10.92 16.425 10.775 15.915 10.485C15.405 10.195 15.015 9.79502 14.745 9.28502C14.475 8.76502 14.325 8.17502 14.295 7.51502C14.285 7.34502 14.28 7.13002 14.28 6.87002C14.28 6.60002 14.285 6.38502 14.295 6.22502C14.325 5.55502 14.475 4.96502 14.745 4.45502C15.025 3.94502 15.42 3.54502 15.93 3.25502C16.44 2.96502 17.07 2.82002 17.82 2.82002C18.57 2.82002 19.2 2.96502 19.71 3.25502C20.22 3.54502 20.61 3.94502 20.88 4.45502C21.16 4.96502 21.315 5.55502 21.345 6.22502C21.355 6.38502 21.36 6.60002 21.36 6.87002C21.36 7.13002 21.355 7.34502 21.345 7.51502C21.315 8.17502 21.165 8.76502 20.895 9.28502C20.625 9.79502 20.235 10.195 19.725 10.485C19.215 10.775 18.58 10.92 17.82 10.92ZM17.82 9.76502C18.44 9.76502 18.935 9.57002 19.305 9.18002C19.675 8.78002 19.875 8.20002 19.905 7.44002C19.915 7.29002 19.92 7.10002 19.92 6.87002C19.92 6.64002 19.915 6.45002 19.905 6.30002C19.875 5.54002 19.675 4.96502 19.305 4.57502C18.935 4.17502 18.44 3.97502 17.82 3.97502C17.2 3.97502 16.7 4.17502 16.32 4.57502C15.95 4.96502 15.755 5.54002 15.735 6.30002C15.725 6.45002 15.72 6.64002 15.72 6.87002C15.72 7.10002 15.725 7.29002 15.735 7.44002C15.755 8.20002 15.95 8.78002 16.32 9.18002C16.7 9.57002 17.2 9.76502 17.82 9.76502ZM23.3433 10.77C23.2433 10.77 23.1583 10.74 23.0883 10.68C23.0283 10.61 22.9983 10.525 22.9983 10.425V3.33002C22.9983 3.23002 23.0283 3.14502 23.0883 3.07502C23.1583 3.00502 23.2433 2.97002 23.3433 2.97002H24.0333C24.1333 2.97002 24.2183 3.00502 24.2883 3.07502C24.3583 3.14502 24.3933 3.23002 24.3933 3.33002V3.99002C24.5933 3.65002 24.8683 3.39502 25.2183 3.22502C25.5683 3.05502 25.9933 2.97002 26.4933 2.97002H27.0783C27.1783 2.97002 27.2583 3.00502 27.3183 3.07502C27.3883 3.13502 27.4233 3.21502 27.4233 3.31502V3.93002C27.4233 4.03002 27.3883 4.11002 27.3183 4.17002C27.2583 4.23002 27.1783 4.26002 27.0783 4.26002H26.1783C25.6383 4.26002 25.2133 4.42002 24.9033 4.74002C24.5933 5.05002 24.4383 5.47502 24.4383 6.01502V10.425C24.4383 10.525 24.4033 10.61 24.3333 10.68C24.2633 10.74 24.1783 10.77 24.0783 10.77H23.3433ZM28.8165 10.77C28.7165 10.77 28.6315 10.74 28.5615 10.68C28.5015 10.61 28.4715 10.525 28.4715 10.425V0.465019C28.4715 0.365019 28.5015 0.285019 28.5615 0.225019C28.6315 0.155019 28.7165 0.120019 28.8165 0.120019H29.5215C29.6215 0.120019 29.7015 0.155019 29.7615 0.225019C29.8315 0.285019 29.8665 0.365019 29.8665 0.465019V5.68502L32.8215 3.22502C32.9415 3.12502 33.0315 3.06002 33.0915 3.03002C33.1615 2.99002 33.2715 2.97002 33.4215 2.97002H34.2165C34.3065 2.97002 34.3815 3.00002 34.4415 3.06002C34.5015 3.12002 34.5315 3.19502 34.5315 3.28502C34.5315 3.32502 34.5165 3.37002 34.4865 3.42002C34.4665 3.47002 34.4215 3.52002 34.3515 3.57002L30.8865 6.45002L34.7265 10.185C34.8465 10.285 34.9065 10.375 34.9065 10.455C34.9065 10.545 34.8765 10.62 34.8165 10.68C34.7565 10.74 34.6815 10.77 34.5915 10.77H33.8115C33.6615 10.77 33.5515 10.755 33.4815 10.725C33.4115 10.685 33.3215 10.615 33.2115 10.515L29.8665 7.32002V10.425C29.8665 10.525 29.8315 10.61 29.7615 10.68C29.7015 10.74 29.6215 10.77 29.5215 10.77H28.8165ZM36.2959 10.77C36.1959 10.77 36.1109 10.74 36.0409 10.68C35.9809 10.61 35.9509 10.525 35.9509 10.425V3.31502C35.9509 3.21502 35.9809 3.13502 36.0409 3.07502C36.1109 3.00502 36.1959 2.97002 36.2959 2.97002H37.0159C37.1159 2.97002 37.1959 3.00502 37.2559 3.07502C37.3259 3.13502 37.3609 3.21502 37.3609 3.31502V10.425C37.3609 10.525 37.3259 10.61 37.2559 10.68C37.1959 10.74 37.1159 10.77 37.0159 10.77H36.2959ZM36.1759 1.51502C36.0759 1.51502 35.9909 1.48502 35.9209 1.42502C35.8609 1.35502 35.8309 1.27002 35.8309 1.17002V0.360019C35.8309 0.260019 35.8609 0.175019 35.9209 0.105019C35.9909 0.0350189 36.0759 1.87159e-05 36.1759 1.87159e-05H37.1209C37.2209 1.87159e-05 37.3059 0.0350189 37.3759 0.105019C37.4459 0.175019 37.4809 0.260019 37.4809 0.360019V1.17002C37.4809 1.27002 37.4459 1.35502 37.3759 1.42502C37.3059 1.48502 37.2209 1.51502 37.1209 1.51502H36.1759ZM42.568 10.92C41.808 10.92 41.173 10.775 40.663 10.485C40.153 10.195 39.763 9.79502 39.493 9.28502C39.223 8.76502 39.073 8.17502 39.043 7.51502C39.033 7.34502 39.028 7.13002 39.028 6.87002C39.028 6.60002 39.033 6.38502 39.043 6.22502C39.073 5.55502 39.223 4.96502 39.493 4.45502C39.773 3.94502 40.168 3.54502 40.678 3.25502C41.188 2.96502 41.818 2.82002 42.568 2.82002C43.318 2.82002 43.948 2.96502 44.458 3.25502C44.968 3.54502 45.358 3.94502 45.628 4.45502C45.908 4.96502 46.063 5.55502 46.093 6.22502C46.103 6.38502 46.108 6.60002 46.108 6.87002C46.108 7.13002 46.103 7.34502 46.093 7.51502C46.063 8.17502 45.913 8.76502 45.643 9.28502C45.373 9.79502 44.983 10.195 44.473 10.485C43.963 10.775 43.328 10.92 42.568 10.92ZM42.568 9.76502C43.188 9.76502 43.683 9.57002 44.053 9.18002C44.423 8.78002 44.623 8.20002 44.653 7.44002C44.663 7.29002 44.668 7.10002 44.668 6.87002C44.668 6.64002 44.663 6.45002 44.653 6.30002C44.623 5.54002 44.423 4.96502 44.053 4.57502C43.683 4.17502 43.188 3.97502 42.568 3.97502C41.948 3.97502 41.448 4.17502 41.068 4.57502C40.698 4.96502 40.503 5.54002 40.483 6.30002C40.473 6.45002 40.468 6.64002 40.468 6.87002C40.468 7.10002 40.473 7.29002 40.483 7.44002C40.503 8.20002 40.698 8.78002 41.068 9.18002C41.448 9.57002 41.948 9.76502 42.568 9.76502ZM48.0913 10.77C47.9913 10.77 47.9063 10.74 47.8363 10.68C47.7763 10.61 47.7463 10.525 47.7463 10.425V3.31502C47.7463 3.21502 47.7763 3.13502 47.8363 3.07502C47.9063 3.00502 47.9913 2.97002 48.0913 2.97002H48.7663C48.8663 2.97002 48.9463 3.00502 49.0063 3.07502C49.0763 3.13502 49.1113 3.21502 49.1113 3.31502V3.84002C49.3413 3.53002 49.6313 3.28502 49.9813 3.10502C50.3313 2.91502 50.7513 2.82002 51.2413 2.82002C52.3713 2.81002 53.1713 3.27002 53.6413 4.20002C53.8713 3.78002 54.2063 3.44502 54.6463 3.19502C55.0863 2.94502 55.5863 2.82002 56.1463 2.82002C56.6663 2.82002 57.1363 2.94002 57.5563 3.18002C57.9863 3.42002 58.3213 3.78502 58.5613 4.27502C58.8113 4.75502 58.9363 5.36002 58.9363 6.09002V10.425C58.9363 10.525 58.9013 10.61 58.8313 10.68C58.7713 10.74 58.6913 10.77 58.5913 10.77H57.8863C57.7863 10.77 57.7013 10.74 57.6313 10.68C57.5713 10.61 57.5413 10.525 57.5413 10.425V6.22502C57.5413 5.66502 57.4613 5.22502 57.3013 4.90502C57.1413 4.58502 56.9263 4.36002 56.6563 4.23002C56.3863 4.10002 56.0913 4.03502 55.7713 4.03502C55.5113 4.03502 55.2463 4.10002 54.9763 4.23002C54.7063 4.36002 54.4813 4.58502 54.3013 4.90502C54.1313 5.22502 54.0463 5.66502 54.0463 6.22502V10.425C54.0463 10.525 54.0113 10.61 53.9413 10.68C53.8813 10.74 53.8013 10.77 53.7013 10.77H52.9963C52.8963 10.77 52.8113 10.74 52.7413 10.68C52.6813 10.61 52.6513 10.525 52.6513 10.425V6.22502C52.6513 5.66502 52.5663 5.22502 52.3963 4.90502C52.2263 4.58502 52.0063 4.36002 51.7363 4.23002C51.4663 4.10002 51.1813 4.03502 50.8813 4.03502C50.6213 4.03502 50.3563 4.10002 50.0863 4.23002C49.8163 4.36002 49.5913 4.58502 49.4113 4.90502C49.2413 5.22502 49.1563 5.66002 49.1563 6.21002V10.425C49.1563 10.525 49.1213 10.61 49.0513 10.68C48.9913 10.74 48.9113 10.77 48.8113 10.77H48.0913ZM61.0764 10.77C60.9764 10.77 60.8914 10.74 60.8214 10.68C60.7614 10.61 60.7314 10.525 60.7314 10.425V9.34502C60.7314 9.24502 60.7614 9.16502 60.8214 9.10502C60.8914 9.03502 60.9764 9.00002 61.0764 9.00002H62.1564C62.2564 9.00002 62.3414 9.03502 62.4114 9.10502C62.4814 9.16502 62.5164 9.24502 62.5164 9.34502V10.425C62.5164 10.525 62.4814 10.61 62.4114 10.68C62.3414 10.74 62.2564 10.77 62.1564 10.77H61.0764ZM67.3792 10.92C66.6692 10.92 66.0542 10.785 65.5342 10.515C65.0242 10.235 64.6292 9.84002 64.3492 9.33002C64.0692 8.81002 63.9192 8.19002 63.8992 7.47002C63.8892 7.32002 63.8842 7.12002 63.8842 6.87002C63.8842 6.62002 63.8892 6.42002 63.8992 6.27002C63.9192 5.55002 64.0692 4.93502 64.3492 4.42502C64.6292 3.90502 65.0242 3.51002 65.5342 3.24002C66.0542 2.96002 66.6692 2.82002 67.3792 2.82002C67.9592 2.82002 68.4542 2.90002 68.8642 3.06002C69.2842 3.22002 69.6292 3.42502 69.8992 3.67502C70.1692 3.92502 70.3692 4.19502 70.4992 4.48502C70.6392 4.77502 70.7142 5.05002 70.7242 5.31002C70.7342 5.41002 70.7042 5.49002 70.6342 5.55002C70.5642 5.61002 70.4792 5.64002 70.3792 5.64002H69.6592C69.5592 5.64002 69.4842 5.62002 69.4342 5.58002C69.3842 5.53002 69.3342 5.45002 69.2842 5.34002C69.1042 4.85002 68.8592 4.50502 68.5492 4.30502C68.2392 4.10502 67.8542 4.00502 67.3942 4.00502C66.7942 4.00502 66.3042 4.19002 65.9242 4.56002C65.5542 4.93002 65.3542 5.52502 65.3242 6.34502C65.3142 6.70502 65.3142 7.05502 65.3242 7.39502C65.3542 8.22502 65.5542 8.82502 65.9242 9.19502C66.3042 9.55502 66.7942 9.73502 67.3942 9.73502C67.8542 9.73502 68.2392 9.63502 68.5492 9.43502C68.8592 9.23502 69.1042 8.89002 69.2842 8.40002C69.3342 8.29002 69.3842 8.21002 69.4342 8.16002C69.4842 8.11002 69.5592 8.08502 69.6592 8.08502H70.3792C70.4792 8.08502 70.5642 8.12002 70.6342 8.19002C70.7042 8.25002 70.7342 8.33002 70.7242 8.43002C70.7142 8.64002 70.6692 8.85502 70.5892 9.07502C70.5092 9.29502 70.3792 9.52002 70.1992 9.75002C70.0292 9.97002 69.8142 10.17 69.5542 10.35C69.2942 10.52 68.9842 10.66 68.6242 10.77C68.2642 10.87 67.8492 10.92 67.3792 10.92ZM75.4605 10.92C74.7005 10.92 74.0655 10.775 73.5555 10.485C73.0455 10.195 72.6555 9.79502 72.3855 9.28502C72.1155 8.76502 71.9655 8.17502 71.9355 7.51502C71.9255 7.34502 71.9205 7.13002 71.9205 6.87002C71.9205 6.60002 71.9255 6.38502 71.9355 6.22502C71.9655 5.55502 72.1155 4.96502 72.3855 4.45502C72.6655 3.94502 73.0605 3.54502 73.5705 3.25502C74.0805 2.96502 74.7105 2.82002 75.4605 2.82002C76.2105 2.82002 76.8405 2.96502 77.3505 3.25502C77.8605 3.54502 78.2505 3.94502 78.5205 4.45502C78.8005 4.96502 78.9555 5.55502 78.9855 6.22502C78.9955 6.38502 79.0005 6.60002 79.0005 6.87002C79.0005 7.13002 78.9955 7.34502 78.9855 7.51502C78.9555 8.17502 78.8055 8.76502 78.5355 9.28502C78.2655 9.79502 77.8755 10.195 77.3655 10.485C76.8555 10.775 76.2205 10.92 75.4605 10.92ZM75.4605 9.76502C76.0805 9.76502 76.5755 9.57002 76.9455 9.18002C77.3155 8.78002 77.5155 8.20002 77.5455 7.44002C77.5555 7.29002 77.5605 7.10002 77.5605 6.87002C77.5605 6.64002 77.5555 6.45002 77.5455 6.30002C77.5155 5.54002 77.3155 4.96502 76.9455 4.57502C76.5755 4.17502 76.0805 3.97502 75.4605 3.97502C74.8405 3.97502 74.3405 4.17502 73.9605 4.57502C73.5905 4.96502 73.3955 5.54002 73.3755 6.30002C73.3655 6.45002 73.3605 6.64002 73.3605 6.87002C73.3605 7.10002 73.3655 7.29002 73.3755 7.44002C73.3955 8.20002 73.5905 8.78002 73.9605 9.18002C74.3405 9.57002 74.8405 9.76502 75.4605 9.76502ZM80.9838 10.77C80.8838 10.77 80.7988 10.74 80.7288 10.68C80.6688 10.61 80.6388 10.525 80.6388 10.425V3.31502C80.6388 3.21502 80.6688 3.13502 80.7288 3.07502C80.7988 3.00502 80.8838 2.97002 80.9838 2.97002H81.6588C81.7588 2.97002 81.8388 3.00502 81.8988 3.07502C81.9688 3.13502 82.0038 3.21502 82.0038 3.31502V3.84002C82.2338 3.53002 82.5238 3.28502 82.8738 3.10502C83.2238 2.91502 83.6438 2.82002 84.1338 2.82002C85.2638 2.81002 86.0638 3.27002 86.5338 4.20002C86.7638 3.78002 87.0988 3.44502 87.5388 3.19502C87.9788 2.94502 88.4788 2.82002 89.0388 2.82002C89.5588 2.82002 90.0288 2.94002 90.4488 3.18002C90.8788 3.42002 91.2138 3.78502 91.4538 4.27502C91.7038 4.75502 91.8288 5.36002 91.8288 6.09002V10.425C91.8288 10.525 91.7938 10.61 91.7238 10.68C91.6638 10.74 91.5838 10.77 91.4838 10.77H90.7788C90.6788 10.77 90.5938 10.74 90.5238 10.68C90.4638 10.61 90.4338 10.525 90.4338 10.425V6.22502C90.4338 5.66502 90.3538 5.22502 90.1938 4.90502C90.0338 4.58502 89.8188 4.36002 89.5488 4.23002C89.2788 4.10002 88.9838 4.03502 88.6638 4.03502C88.4038 4.03502 88.1388 4.10002 87.8688 4.23002C87.5988 4.36002 87.3738 4.58502 87.1938 4.90502C87.0238 5.22502 86.9388 5.66502 86.9388 6.22502V10.425C86.9388 10.525 86.9038 10.61 86.8338 10.68C86.7738 10.74 86.6938 10.77 86.5938 10.77H85.8888C85.7888 10.77 85.7038 10.74 85.6338 10.68C85.5738 10.61 85.5438 10.525 85.5438 10.425V6.22502C85.5438 5.66502 85.4588 5.22502 85.2888 4.90502C85.1188 4.58502 84.8988 4.36002 84.6288 4.23002C84.3588 4.10002 84.0738 4.03502 83.7738 4.03502C83.5138 4.03502 83.2488 4.10002 82.9788 4.23002C82.7088 4.36002 82.4838 4.58502 82.3038 4.90502C82.1338 5.22502 82.0488 5.66002 82.0488 6.21002V10.425C82.0488 10.525 82.0138 10.61 81.9438 10.68C81.8838 10.74 81.8038 10.77 81.7038 10.77H80.9838Z" fill="#747474"/>
</svg>
