<svg width="12" height="14" viewBox="0 0 12 14" fill="none" xmlns="http://www.w3.org/2000/svg">
<path d="M4.5 9.62963C4.5 10.0387 4.16421 10.3704 3.75 10.3704C3.33579 10.3704 3 10.0387 3 9.62963C3 9.22053 3.33579 8.88889 3.75 8.88889C4.16421 8.88889 4.5 9.22053 4.5 9.62963Z" fill="#0E0F12"/>
<path d="M6 10.3704C6.41421 10.3704 6.75 10.0387 6.75 9.62963C6.75 9.22053 6.41421 8.88889 6 8.88889C5.58579 8.88889 5.25 9.22053 5.25 9.62963C5.25 10.0387 5.58579 10.3704 6 10.3704Z" fill="#0E0F12"/>
<path d="M8.25 10.3704C8.66421 10.3704 9 10.0387 9 9.62963C9 9.22053 8.66421 8.88889 8.25 8.88889C7.83579 8.88889 7.5 9.22053 7.5 9.62963C7.5 10.0387 7.83579 10.3704 8.25 10.3704Z" fill="#0E0F12"/>
<path fill-rule="evenodd" clip-rule="evenodd" d="M9.6 3.63636V5.45455H10.2C11.1941 5.45455 12 6.26857 12 7.27273V11.5152C12 12.5193 11.1941 13.3333 10.2 13.3333H1.8C0.805887 13.3333 0 12.5193 0 11.5152V7.27273C0 6.26857 0.805887 5.45455 1.8 5.45455H2.4V3.63636C2.4 2.67194 2.77928 1.74702 3.45442 1.06507C4.12955 0.383116 5.04522 0 6 0C6.95478 0 7.87045 0.383116 8.54558 1.06507C9.22072 1.74702 9.6 2.67194 9.6 3.63636ZM1.2 7.27273C1.2 6.93801 1.46863 6.66667 1.8 6.66667H10.2C10.5314 6.66667 10.8 6.93801 10.8 7.27273V11.5152C10.8 11.8499 10.5314 12.1212 10.2 12.1212H1.8C1.46863 12.1212 1.2 11.8499 1.2 11.5152V7.27273ZM4.3028 1.92216C4.75288 1.46752 5.36333 1.21211 5.99985 1.21211C6.63637 1.21211 7.24682 1.46752 7.69691 1.92216C8.147 2.37679 8.39985 2.99341 8.39985 3.63636V5.45454H3.59985V3.63636C3.59985 2.99341 3.85271 2.37679 4.3028 1.92216Z" fill="#0E0F12"/>
</svg>
