<svg width="16" height="16" viewBox="0 0 16 16" fill="none" xmlns="http://www.w3.org/2000/svg">
<path opacity="0.6" d="M12.6664 4C12.4896 4 12.3199 4.0702 12.1949 4.19516C12.0698 4.32012 11.9995 4.4896 11.9995 4.66632V7.33158C11.9995 7.5083 11.9293 7.67777 11.8042 7.80273C11.6792 7.92769 11.5095 7.99789 11.3327 7.99789H4.93734L5.80428 7.13835C5.92985 7.01288 6.0004 6.8427 6.0004 6.66526C6.0004 6.48782 5.92985 6.31765 5.80428 6.19218C5.6787 6.06671 5.50839 5.99622 5.3308 5.99622C5.15321 5.99622 4.98289 6.06671 4.85732 6.19218L2.85669 8.19112C2.79598 8.25449 2.74839 8.32922 2.71665 8.41101C2.64995 8.57323 2.64995 8.75519 2.71665 8.91741C2.74839 8.9992 2.79598 9.07392 2.85669 9.13729L4.85732 11.1362C4.91931 11.1987 4.99307 11.2483 5.07433 11.2821C5.1556 11.3159 5.24276 11.3333 5.3308 11.3333C5.41883 11.3333 5.506 11.3159 5.58726 11.2821C5.66853 11.2483 5.74228 11.1987 5.80428 11.1362C5.86678 11.0743 5.9164 11.0006 5.95025 10.9194C5.98411 10.8382 6.00154 10.7511 6.00154 10.6632C6.00154 10.5752 5.98411 10.4881 5.95025 10.4069C5.9164 10.3257 5.86678 10.252 5.80428 10.1901L4.93734 9.33052H11.3327C11.8633 9.33052 12.3721 9.11992 12.7473 8.74505C13.1225 8.37017 13.3333 7.86173 13.3333 7.33158V4.66632C13.3333 4.4896 13.263 4.32012 13.138 4.19516C13.0129 4.0702 12.8433 4 12.6664 4Z" fill="white"/>
</svg>
